<?xml version="1.0" encoding="UTF-8"?>
<svg xmlns="http://www.w3.org/2000/svg" xmlns:xlink="http://www.w3.org/1999/xlink" width="150px" height="50px" viewBox="0 0 39 13" version="1.1">
<g id="surface1">
<path style="fill:none;stroke-width:2;stroke-linecap:butt;stroke-linejoin:miter;stroke:rgb(100%,100%,100%);stroke-opacity:1;stroke-miterlimit:4;" d="M 1.998197 1.006611 L 148.001803 1.006611 C 148.557692 1.006611 148.993389 1.442308 148.993389 1.998197 L 148.993389 48.001803 C 148.993389 48.557692 148.557692 48.993389 148.001803 48.993389 L 1.998197 48.993389 C 1.442308 48.993389 1.006611 48.557692 1.006611 48.001803 L 1.006611 1.998197 C 1.006611 1.442308 1.442308 1.006611 1.998197 1.006611 Z M 1.998197 1.006611 " transform="matrix(0.26,0,0,0.26,0,0)"/>
<path style=" stroke:none;fill-rule:nonzero;fill:rgb(100%,100%,100%);fill-opacity:1;" d="M 22.359375 6.183594 L 19.816406 6.183594 L 19.816406 3.640625 L 19.183594 3.640625 L 19.183594 6.183594 L 16.640625 6.183594 L 16.640625 6.816406 L 19.183594 6.816406 L 19.183594 9.359375 L 19.816406 9.359375 L 19.816406 6.816406 L 22.359375 6.816406 Z M 22.359375 6.183594 "/>
</g>
</svg>
